<svg t="1605975326055" class="icon" viewBox="0 0 1024 1024" version="1.1" xmlns="http://www.w3.org/2000/svg" p-id="9994" width="16" height="16"><path d="M512.050012 0.006205a511.989414 511.989414 0 1 0 511.943787 511.989415A509.434258 509.434258 0 0 0 512.050012 0.006205z m-49.278012 200.305992c13.41457-13.41457 24.912773-22.357616 46.722856-22.357617 24.319611-1.961995 46.677228 9.536208 55.665902 26.82914 10.266252 12.18262 16.015354 39.057387 13.688336 55.072741 0 4.562779-3.193945 34.540236-4.562779 42.844493l-17.93172 227.180759a138.525966 138.525966 0 0 1-13.597081 62.281931c-4.562779 13.41457-17.931721 22.403244-35.817814 22.403244a33.673308 33.673308 0 0 1-31.346291-22.403244 157.233359 157.233359 0 0 1-13.460198-62.09942l-12.136991-222.709236c-4.562779-40.334965-4.562779-26.874767-4.562779-49.232383a92.806922 92.806922 0 0 1 17.292932-57.627897zM561.282396 828.150566a63.878904 63.878904 0 0 1-44.760861 17.886093c-17.886093 0-35.817814-4.562779-49.323639-17.886093a73.962645 73.962645 0 0 1-22.357616-53.110746c0-17.931721 4.562779-35.863442 17.93172-49.278011a65.384621 65.384621 0 0 1 98.510396 0c13.460198 13.688337 17.931721 31.391918 17.931721 49.323639-0.593161 21.718827-5.110312 39.650548-17.931721 53.110746z m0 0" fill="#999999" p-id="9995"></path></svg>