<svg t="1605975622291" class="icon" viewBox="0 0 1024 1024" version="1.1" xmlns="http://www.w3.org/2000/svg" p-id="10898" width="16" height="16"><path d="M940.1 461L773.7 616c-91 81.5-185.4 114.5-261.8 115.7C367.7 733.9 250.1 616 250.1 616L84.2 462.9c-18.2-17.8-24.7-44.1-17-67.5 7.5-23.6 27.7-40.8 52.5-44.5L350 309.2l103.2-207.5c11.2-22.5 33.8-36.5 58.7-36.5 24.8 0 47.9 14.4 58.6 36.6L673.6 309l230.9 40.5c24.3 3.6 44.5 20.7 52.1 44.5 7.7 23.4 1.2 49.7-16.5 67zM420.2 586.8c51 51 133.6 51 184.6 0 10.9-10.9 10.9-28.7 0-39.6-10.9-10.9-28.7-10.9-39.6 0-29.1 29.1-76.3 29.1-105.4 0-10.9-10.9-28.7-10.9-39.6 0-10.9 10.9-10.9 28.7 0 39.6z" fill="#bfbfbf" p-id="10899"></path><path d="M408.3 817.6c20.3 14.7 17.6 45.8-4.9 56.9l-160.5 78.7c-20.3 10.8-48.4 8.9-68.1-5.5-19.8-14.1-30-39.3-25.9-63.8L182.3 712c4.6-23.9 32.4-34.9 52.1-20.6l173.9 126.2zM603.7 817.6c-20.3 14.7-17.6 45.8 4.9 56.9l160.5 78.7c20.3 10.8 48.4 8.9 68.1-5.5 19.8-14.1 30-39.3 25.9-63.8L829.7 712c-4.6-23.9-32.4-34.9-52.1-20.6L603.7 817.6z" fill="#bfbfbf" p-id="10900"></path></svg>