<svg t="1605941522832" class="icon" viewBox="0 0 1024 1024" version="1.1" xmlns="http://www.w3.org/2000/svg" p-id="1757" width="16" height="16"><path d="M509.71905 906.454864c-25.063839-19.280112-66.954925-35.931351-131.279952-29.971616-119.53649 11.042497-148.982126 44.519959-148.982126 64.501037 0 19.981077 66.954925 18.929118 148.982126 18.929118 46.622854 0 89.564875-1.577938 118.134561-6.134721 9.464559-1.577938 18.929118-1.401929 26.465768-1.051959 28.3947 5.257747 73.614601 7.010671 122.691344 7.010671 82.028225 0 148.982126 1.051959 148.982126-18.929118 0-16.651238-29.445636-53.633524-148.982126-64.501036-74.490551-7.010671-115.504664 11.042497-136.011721 30.147624z" fill="#F9AE08" p-id="1758"></path><path d="M380.367007 94.938256c-171.5931 94.472652-149.683091 345.815073-149.683091 345.815073s-23.661909 53.984518-34.178427 80.976266c-12.093433 31.724539-33.302477 95.523587-33.302477 95.523587s-15.0733 38.034245-24.362874 91.14179-4.381797 94.822622 6.6607 92.193749c21.908986-5.082762 78.172407-97.977475 78.172408-97.977475s-4.556783 117.958552 97.627504 189.996238c83.956134 63.624063 184.212512 59.242266 184.212512 59.242266h11.217483s101.834316 5.257747 185.965435-58.541301c102.184287-72.037686 97.627505-189.996239 97.627505-189.996239s56.262398 92.894713 78.172407 97.977476c11.042497 2.628874 15.950274-39.086204 6.6607-92.193749-9.289574-53.107545-24.362874-91.14179-24.362874-91.14179s-21.208021-63.799048-33.302477-95.523587c-10.341532-27.167756-34.178427-80.976266-34.178427-80.976266S815.220976 190.111872 643.627876 95.639221c-10.516518-4.732791-20.507056-9.289574-30.67258-12.795421-53.108568-20.331048-136.012743-32.95046-232.588289 12.094456z" fill="" p-id="1759"></path><path d="M309.556265 781.835611c28.043706 83.255169 91.843778 138.290623 203.14163 138.290623 170.892135-6.484691 219.792868-126.72317 219.792868-283.06696 0-34.178427-4.732791-66.954925-13.320377-97.276511-78.873372-2.628874-284.643875-2.628874-412.242995-2.628873-9.114588 31.023574-14.022365 64.851007-14.022365 100.081392-0.173962 52.405557 2.454912 102.534258 16.651239 144.600329zM388.079666 248.653173c-0.014326 39.203884 22.103414 71.003124 49.40113 71.02359 27.297716 0.020466 49.438992-31.743982 49.453319-70.947865v-0.075725c0.014326-39.203884-22.103414-71.002101-49.40113-71.02359-27.297716-0.020466-49.438992 31.743982-49.453319 70.947865v0.075725zM536.360827 248.653173c0 39.204907 22.128997 70.985728 49.426713 70.985728 27.297716 0 49.426713-31.781844 49.426713-70.985728s-22.128997-70.985728-49.426713-70.985728c-27.297716 0-49.426713 31.780821-49.426713 70.985728z" fill="#FFFFFF" p-id="1760"></path><path d="M431.722652 253.385964c-0.011256 15.682167 9.318226 28.40698 20.837584 28.421307 11.519358 0.01535 20.866237-12.684904 20.877493-28.367071v-0.054236c0.011256-15.682167-9.318226-28.40698-20.837584-28.421306-11.519358-0.01535-20.866237 12.684904-20.877493 28.367071v0.054235zM547.753295 256.715803s-0.87595 9.990538 8.763595 8.938579c11.217483-15.950274 26.991748-14.547321 26.991747-14.547321s17.001209 0 22.083971 7.010671c9.815553 0 11.217483-10.516518 11.217483-10.516518s-8.763594-14.898315-34.528398-12.093432c-24.362874 3.329838-34.528398 21.208021-34.528398 21.208021z" fill="" p-id="1761"></path><path d="M343.384721 382.212028s-9.640568-5.608741 2.278903-12.970406c11.918447-7.53665 49.251727-27.342742 165.633365-28.3947 109.194958-1.051959 155.467841 19.105127 168.613232 30.848588 4.732791 3.505847 3.505847 5.433756 2.979868 7.361665-2.979868 9.990538-95.523587 55.211463-168.788218 53.107545-103.062284 0-170.71715-49.952692-170.71715-49.952692z" fill="#F9AE08" p-id="1762"></path><path d="M494.64575 480.540498c-160.024623-5.959735-264.837784-39.962154-264.837784-39.962154s-15.0733 34.528398-21.559015 50.653657c-7.010671 17.177218-19.105127 49.426713-19.105127 49.426712s88.86391 27.517727 145.652288 34.003442v130.227993s63.624063 12.093433 122.866329 3.329839V589.034491s193.677071 13.846356 376.136659-48.199769c-8.06263-22.60995-14.898315-39.612183-20.85805-54.159504-12.269441-29.79663-19.806091-45.044916-19.806092-45.044915s-155.465794 45.219901-298.489208 38.910195z" fill="#E82220" p-id="1763"></path></svg>