<svg t="1605941797429" class="icon" viewBox="0 0 1024 1024" version="1.1" xmlns="http://www.w3.org/2000/svg" p-id="4536" width="16" height="16"><path d="M579.599 511.555a24.635 24.635 0 0 0-23.077 24.19 24.264 24.264 0 0 0 23.374 21.667c17.512 0 29.68-10.833 29.68-21.667 0-13.357-12.54-24.19-29.68-24.19z m-76.8-112.566a27.826 27.826 0 0 0 29.681-29.162 27.38 27.38 0 0 0-29.681-29.161c-17.512 0-34.208 10.833-34.208 29.161s16.696 29.162 34.208 29.162zM512 0a512 512 0 1 0 512 512A512 512 0 0 0 512 0z m-96.464 641.707a275.812 275.812 0 0 1-82.588-13.357l-84.59 42.593 24.19-71.755c-59.215-41.702-94.461-94.608-94.461-158.497 0-113.456 106.778-200.348 236.93-200.348 115.089 0 217.711 68.415 237.45 165.176a115.534 115.534 0 0 0-22.262-2.523c-113.456 0-201.015 85.11-201.015 187.66a201.09 201.09 0 0 0 6.678 50.086 175.045 175.045 0 0 1-20.851 0.816zM763.4 723.33l16.696 60.03-63.37-35.84c-24.19 4.972-47.563 12.54-71.753 12.54-111.75 0-200.348-76.726-200.348-171.854s88.45-171.854 200.348-171.854c105.59 0.149 200.941 76.875 200.941 172.003 0 53.352-35.84 100.916-82.588 135.123zM337.623 340.59c-17.512 0-35.84 10.834-35.84 29.162s18.328 29.236 35.84 29.236a28.717 28.717 0 0 0 29.681-29.236 28.197 28.197 0 0 0-29.68-29.162z m372.87 170.667a24.042 24.042 0 0 0-23.374 24.19 23.597 23.597 0 0 0 23.374 21.667c16.695 0 29.161-10.833 29.161-21.667 0-13.356-12.54-24.19-29.161-24.19z m0 0" fill="#19D100" p-id="4537"></path></svg>