<svg t="1605975098797" class="icon" viewBox="0 0 1024 1024" version="1.1" xmlns="http://www.w3.org/2000/svg" p-id="1315" width="16" height="16"><path d="M805.96 230.62c-23.22-34.33-58.42-57.57-99.12-65.42-9.67-1.86-19.55-2.81-29.39-2.81-31.12 0-61.18 9.22-86.95 26.65L388.51 325.82c-34.32 23.23-57.54 58.44-65.37 99.14-7.84 40.69 0.65 82.01 23.89 116.32 28.57 42.24 76.2 67.46 127.41 67.46 26 0 51.87-6.61 74.8-19.12l4.96-2.71-0.11-0.24c14.57-9.4 19.17-28.97 10.22-43.89-5.82-9.7-16.48-15.73-27.8-15.73-3.7 0-7.37 0.64-10.84 1.88l-0.69-1.18-5.19 3.12c-15.56 9.36-32.81 14.3-49.91 14.3-28.2 0-53.51-13.51-69.46-37.08-13.72-20.24-18.73-44.62-14.11-68.63 4.62-24.01 18.32-44.78 38.58-58.48l197.89-133.92c15.21-10.31 32.96-15.76 51.33-15.76 5.79 0 11.61 0.56 17.3 1.65 24.01 4.62 44.78 18.32 58.48 38.58 13.74 20.31 19.09 43.32 15.07 64.78-4.09 21.82-17.08 40.68-37.65 54.59l-30.15 20.99c-9.79 6.58-15.37 17.97-14.55 29.75 0.82 11.79 7.94 22.32 18.58 27.47 4.46 2.16 9.45 3.3 14.4 3.3 6.65 0 13.08-1.98 18.58-5.71 0.51-0.33 0.91-0.69 1.21-1l29.07-19.64c34.33-23.23 57.55-58.44 65.39-99.14 7.83-40.66-0.65-81.98-23.88-116.3z" fill="#4E4E4E" p-id="1316"></path><path d="M608.5 423.64c-21.31-10.7-45.26-16.35-69.28-16.35-27.35 0-54.38 7.26-78.18 21.01l-19.34 11.2h6.34c-7.24 10.41-8 24.65-0.84 35.93 5.97 9.41 16.2 15.02 27.36 15.02 4.15 0 8.24-0.8 12.06-2.34l0.8 1 4.55-2.9c15.99-10.19 33.86-15.57 51.68-15.57 27.3 0 52.17 12.91 68.22 35.43 14.21 19.9 19.81 44.14 15.78 68.26-4.04 24.12-17.22 45.22-37.14 59.41l-194.6 138.82c-15.61 11.12-33.96 17-53.05 17-29.56 0-57.45-14.34-74.6-38.35-14.34-20.11-20.23-43.14-16.58-64.84 3.65-21.73 16.17-40.75 36.2-54.99l29.61-21.81a33.053 33.053 0 0 0 14.31-30.21 33.075 33.075 0 0 0-19.47-27.3c-4.26-1.9-8.79-2.86-13.45-2.86-7.07 0-14.07 2.32-19.74 6.54-0.45 0.32-0.8 0.65-1.07 0.93l-28.66 20.4c-33.64 24.1-55.9 59.85-62.69 100.67-6.79 40.82 2.71 81.85 26.74 115.54 29.06 40.74 76.33 65.07 126.44 65.07 32.28 0 63.3-9.91 89.71-28.67l198.57-141.65c33.74-24.07 56.08-59.84 62.91-100.71 6.83-40.88-2.66-81.96-26.73-115.69-14.47-20.32-33.79-36.91-55.86-47.99z" fill="#4E4E4E" p-id="1317"></path></svg>