<svg t="1605975229301" class="icon" viewBox="0 0 1024 1024" version="1.1" xmlns="http://www.w3.org/2000/svg" p-id="7338" width="16" height="16"><path d="M82.471385 452.214154l395.106461-364.150154A157.538462 157.538462 0 0 1 574.070154 46.710154L816.049231 30.877538a157.538462 157.538462 0 0 1 167.463384 167.463385l-15.36 234.732308a157.538462 157.538462 0 0 1-50.412307 105.550769l-399.202462 367.852308a157.538462 157.538462 0 0 1-218.190769-4.411077L77.902769 679.463385a157.538462 157.538462 0 0 1 4.726154-227.249231z m702.621538-69.789539a118.153846 118.153846 0 1 0-167.148308-167.069538 118.153846 118.153846 0 0 0 167.148308 167.069538z" fill="#888888" p-id="7339"></path></svg>